<svg width="57" height="57" viewBox="0 0 57 57" fill="none" xmlns="http://www.w3.org/2000/svg">
<path d="M28.7135 4.788C23.5481 9.952 23.2081 17.7747 23.8708 23.5573C28.2481 24.0587 31.4575 25.1346 31.4575 25.1346C30.6601 21.7293 29.5868 14.3213 33.9175 9.99198C37.4321 6.47598 43.1535 6.47732 46.6681 9.99198C50.1828 13.5067 50.1828 19.2253 46.6681 22.7413C42.8561 26.5533 35.5588 25.9946 31.4575 25.1346C31.4575 25.1346 32.4321 28.372 32.8895 32.7493C34.3815 32.9653 35.9335 33.1173 37.3895 33.1173C42.2001 33.1173 47.7908 32.0253 51.8721 27.9453C58.2561 21.5613 58.2561 11.172 51.8721 4.788C48.6801 1.596 44.4855 0 40.2921 0C36.0988 0 31.9055 1.596 28.7135 4.788Z" fill="url(#paint0_linear_5_100)"/>
<path d="M5.10148 28.3986C2.00815 31.492 0.305481 35.6053 0.305481 39.9773C0.305481 44.3533 2.00815 48.464 5.10148 51.5573C8.19481 54.6493 12.3068 56.3533 16.6801 56.3533C21.0548 56.3533 25.1668 54.6493 28.2601 51.5573C33.1868 46.6307 33.5068 38.6533 32.8895 32.7493C28.9455 32.1773 25.4468 31.1373 25.4468 31.1373C25.4468 31.1373 24.3722 27.9293 23.8708 23.5573C22.5442 23.404 21.1068 23.3053 19.6215 23.3053C14.6348 23.3053 9.07881 24.4213 5.10148 28.3986ZM10.3055 46.3533C8.60281 44.6506 7.66548 42.3867 7.66548 39.9773C7.66548 37.5707 8.60281 35.3053 10.3055 33.6027C12.8028 31.1067 16.2895 30.396 19.4535 30.396C21.8148 30.396 23.9948 30.792 25.4468 31.1373C26.3095 35.2427 26.8682 42.54 23.0548 46.3533C21.3522 48.056 19.0881 48.9947 16.6801 48.9947C14.2721 48.9947 12.0081 48.056 10.3055 46.3533Z" fill="url(#paint1_linear_5_100)"/>
<path d="M40.1268 39.8133C37.4948 42.4453 37.4948 46.728 40.1268 49.3586C41.4428 50.676 43.1708 51.3333 44.9002 51.3333C46.6295 51.3333 48.3575 50.676 49.6735 49.3586C52.3055 46.7266 52.3055 42.4453 49.6735 39.8133C48.3575 38.4973 46.6282 37.8386 44.9002 37.8386C43.1722 37.8386 41.4428 38.4973 40.1268 39.8133Z" fill="url(#paint2_linear_5_100)"/>
<path d="M23.8711 23.5567C24.3711 27.93 25.4471 31.1367 25.4471 31.1367C25.4471 31.1367 28.9444 32.1767 32.8898 32.7487C32.4311 28.3727 31.4578 25.134 31.4578 25.134C31.4578 25.134 28.2471 24.058 23.8711 23.5567Z" fill="#0BEFFF"/>
<path d="M41 45L44 47L48 41" stroke="url(#paint3_linear_5_100)" stroke-width="2"/>
<defs>
<linearGradient id="paint0_linear_5_100" x1="19.9845" y1="-6.01577" x2="47.6907" y2="25.22" gradientUnits="userSpaceOnUse">
<stop stop-color="#33CCFF"/>
<stop offset="0.995613" stop-color="#08D1C0"/>
<stop offset="1" stop-color="#08D1C0"/>
</linearGradient>
<linearGradient id="paint1_linear_5_100" x1="23.8413" y1="16.2312" x2="13.412" y2="50.2832" gradientUnits="userSpaceOnUse">
<stop stop-color="#33CCFF"/>
<stop offset="0.00388622" stop-color="#33CCFF"/>
<stop offset="1" stop-color="#1E293B"/>
</linearGradient>
<linearGradient id="paint2_linear_5_100" x1="51.0336" y1="24.5595" x2="40.6044" y2="58.6115" gradientUnits="userSpaceOnUse">
<stop stop-color="#33CCFF"/>
<stop offset="0.00388622" stop-color="#33CCFF"/>
<stop offset="1" stop-color="#1A2742"/>
</linearGradient>
<linearGradient id="paint3_linear_5_100" x1="43.988" y1="41.0135" x2="44.0743" y2="47.0141" gradientUnits="userSpaceOnUse">
<stop stop-color="#0BEFFF"/>
<stop offset="1" stop-color="#0BEFFF"/>
</linearGradient>
</defs>
</svg>
