<svg width="178" height="107" viewBox="0 0 178 107" fill="none" xmlns="http://www.w3.org/2000/svg">
<path d="M1.37871 74.6861V69.7641H24.5686V74.6861H15.9241V98H10.0232V74.6861H1.37871ZM26.0782 98V76.8231H31.7723V80.518H31.9929C32.3789 79.2036 33.0269 78.211 33.9369 77.54C34.8468 76.8598 35.8946 76.5197 37.0803 76.5197C37.3745 76.5197 37.6916 76.5381 38.0316 76.5749C38.3717 76.6117 38.6704 76.6622 38.9278 76.7265V81.9381C38.6521 81.8553 38.2706 81.7818 37.7835 81.7175C37.2963 81.6531 36.8505 81.621 36.4461 81.621C35.5821 81.621 34.8101 81.8094 34.1299 82.1862C33.4589 82.5539 32.9258 83.0686 32.5306 83.7304C32.1446 84.3922 31.9515 85.155 31.9515 86.019V98H26.0782ZM55.5447 88.9833V76.8231H61.418V98H55.7791V94.1534H55.5585C55.0805 95.3942 54.2855 96.3915 53.1733 97.1452C52.0703 97.8989 50.7238 98.2757 49.1337 98.2757C47.7182 98.2757 46.4728 97.954 45.3974 97.3106C44.322 96.6672 43.481 95.7527 42.8744 94.567C42.2769 93.3813 41.9736 91.9613 41.9644 90.3068V76.8231H47.8377V89.259C47.8469 90.509 48.1824 91.4971 48.8442 92.2232C49.5059 92.9493 50.3929 93.3124 51.5051 93.3124C52.2128 93.3124 52.8746 93.1515 53.4904 92.8298C54.1062 92.499 54.6026 92.0118 54.9794 91.3684C55.3654 90.725 55.5539 89.93 55.5447 88.9833ZM83.7358 82.8618L78.3588 83.1927C78.2669 82.7331 78.0693 82.3195 77.766 81.9518C77.4627 81.575 77.0628 81.2763 76.5665 81.0557C76.0794 80.8259 75.4957 80.711 74.8156 80.711C73.9056 80.711 73.1381 80.904 72.5131 81.2901C71.8881 81.6669 71.5756 82.1724 71.5756 82.8066C71.5756 83.3122 71.7778 83.7396 72.1822 84.0888C72.5866 84.4381 73.2806 84.7185 74.2641 84.9299L78.0969 85.7019C80.1557 86.1247 81.6907 86.8049 82.7018 87.7424C83.7128 88.6799 84.2183 89.9116 84.2183 91.4374C84.2183 92.8253 83.8093 94.0431 82.9913 95.0909C82.1824 96.1387 81.0703 96.9568 79.6548 97.545C78.2485 98.1241 76.6263 98.4136 74.788 98.4136C71.9846 98.4136 69.7511 97.83 68.0875 96.6627C66.433 95.4862 65.4633 93.8869 65.1784 91.8648L70.9552 91.5614C71.1298 92.4162 71.5526 93.0688 72.2236 93.5192C72.8946 93.9604 73.7539 94.181 74.8018 94.181C75.8312 94.181 76.6584 93.9834 77.2834 93.5881C77.9176 93.1837 78.2393 92.6644 78.2485 92.0302C78.2393 91.4971 78.0142 91.0605 77.573 90.7204C77.1318 90.3712 76.4516 90.1046 75.5325 89.9208L71.8651 89.1901C69.7971 88.7764 68.2575 88.0595 67.2464 87.0393C66.2446 86.019 65.7437 84.7185 65.7437 83.1375C65.7437 81.7772 66.1113 80.6053 66.8466 79.6218C67.5911 78.6384 68.6343 77.8801 69.9763 77.347C71.3274 76.8139 72.9083 76.5473 74.719 76.5473C77.3937 76.5473 79.4986 77.1126 81.0335 78.2431C82.5777 79.3737 83.4784 80.9132 83.7358 82.8618ZM99.1808 76.8231V81.2349H86.4277V76.8231H99.1808ZM89.323 71.7494H95.1963V91.4925C95.1963 92.0348 95.279 92.4576 95.4445 92.7609C95.6099 93.055 95.8397 93.2618 96.1338 93.3813C96.4371 93.5008 96.7864 93.5606 97.1816 93.5606C97.4574 93.5606 97.7331 93.5376 98.0089 93.4916C98.2846 93.4365 98.496 93.3951 98.6431 93.3675L99.5668 97.738C99.2727 97.83 98.8591 97.9357 98.326 98.0551C97.7929 98.1838 97.1449 98.262 96.382 98.2895C94.9665 98.3447 93.7257 98.1563 92.6595 97.7243C91.6025 97.2923 90.7798 96.6213 90.1916 95.7113C89.6033 94.8014 89.3138 93.6525 89.323 92.2646V71.7494Z" fill="#08D1C0"/>
<path d="M129.064 83.882C129.064 86.9611 128.481 89.5807 127.313 91.7407C126.155 93.9006 124.574 95.5505 122.571 96.6902C120.576 97.8208 118.333 98.386 115.842 98.386C113.333 98.386 111.081 97.8162 109.087 96.6764C107.092 95.5367 105.516 93.8869 104.358 91.7269C103.2 89.5669 102.621 86.952 102.621 83.882C102.621 80.8029 103.2 78.1834 104.358 76.0234C105.516 73.8634 107.092 72.2182 109.087 71.0876C111.081 69.9479 113.333 69.378 115.842 69.378C118.333 69.378 120.576 69.9479 122.571 71.0876C124.574 72.2182 126.155 73.8634 127.313 76.0234C128.481 78.1834 129.064 80.8029 129.064 83.882ZM123.012 83.882C123.012 81.8875 122.713 80.2055 122.116 78.836C121.527 77.4665 120.695 76.4278 119.62 75.7201C118.545 75.0124 117.285 74.6585 115.842 74.6585C114.399 74.6585 113.14 75.0124 112.065 75.7201C110.989 76.4278 110.153 77.4665 109.556 78.836C108.967 80.2055 108.673 81.8875 108.673 83.882C108.673 85.8766 108.967 87.5586 109.556 88.9281C110.153 90.2976 110.989 91.3362 112.065 92.044C113.14 92.7517 114.399 93.1056 115.842 93.1056C117.285 93.1056 118.545 92.7517 119.62 92.044C120.695 91.3362 121.527 90.2976 122.116 88.9281C122.713 87.5586 123.012 85.8766 123.012 83.882ZM133.376 105.941V76.8231H139.167V80.3801H139.429C139.686 79.8103 140.058 79.2312 140.545 78.6429C141.042 78.0455 141.685 77.5492 142.476 77.1539C143.275 76.7495 144.268 76.5473 145.454 76.5473C146.998 76.5473 148.422 76.9517 149.728 77.7606C151.033 78.5602 152.076 79.7689 152.857 81.3866C153.639 82.9951 154.029 85.0126 154.029 87.4391C154.029 89.8013 153.648 91.7958 152.885 93.4227C152.131 95.0404 151.102 96.2674 149.797 97.1038C148.501 97.9311 147.048 98.3447 145.44 98.3447C144.3 98.3447 143.33 98.1563 142.531 97.7794C141.74 97.4026 141.092 96.9292 140.587 96.3593C140.081 95.7803 139.695 95.1966 139.429 94.6084H139.249V105.941H133.376ZM139.125 87.4115C139.125 88.6707 139.3 89.7691 139.649 90.7066C139.999 91.6442 140.504 92.3749 141.166 92.8988C141.828 93.4135 142.632 93.6709 143.579 93.6709C144.534 93.6709 145.343 93.4089 146.005 92.885C146.667 92.3519 147.168 91.6166 147.508 90.6791C147.857 89.7324 148.032 88.6432 148.032 87.4115C148.032 86.1891 147.862 85.1137 147.522 84.1854C147.182 83.257 146.681 82.5309 146.019 82.007C145.357 81.4831 144.544 81.2211 143.579 81.2211C142.623 81.2211 141.814 81.4739 141.152 81.9794C140.499 82.4849 139.999 83.2019 139.649 84.1302C139.3 85.0585 139.125 86.1523 139.125 87.4115ZM175.565 82.8618L170.188 83.1927C170.096 82.7331 169.898 82.3195 169.595 81.9518C169.291 81.575 168.892 81.2763 168.395 81.0557C167.908 80.8259 167.325 80.711 166.644 80.711C165.734 80.711 164.967 80.904 164.342 81.2901C163.717 81.6669 163.404 82.1724 163.404 82.8066C163.404 83.3122 163.607 83.7396 164.011 84.0888C164.415 84.4381 165.109 84.7185 166.093 84.9299L169.926 85.7019C171.985 86.1247 173.52 86.8049 174.531 87.7424C175.542 88.6799 176.047 89.9116 176.047 91.4374C176.047 92.8253 175.638 94.0431 174.82 95.0909C174.011 96.1387 172.899 96.9568 171.484 97.545C170.077 98.1241 168.455 98.4136 166.617 98.4136C163.813 98.4136 161.58 97.83 159.916 96.6627C158.262 95.4862 157.292 93.8869 157.007 91.8648L162.784 91.5614C162.959 92.4162 163.381 93.0688 164.052 93.5192C164.723 93.9604 165.583 94.181 166.631 94.181C167.66 94.181 168.487 93.9834 169.112 93.5881C169.746 93.1837 170.068 92.6644 170.077 92.0302C170.068 91.4971 169.843 91.0605 169.402 90.7204C168.961 90.3712 168.28 90.1046 167.361 89.9208L163.694 89.1901C161.626 88.7764 160.086 88.0595 159.075 87.0393C158.073 86.019 157.572 84.7185 157.572 83.1375C157.572 81.7772 157.94 80.6053 158.675 79.6218C159.42 78.6384 160.463 77.8801 161.805 77.347C163.156 76.8139 164.737 76.5473 166.548 76.5473C169.223 76.5473 171.327 77.1126 172.862 78.2431C174.406 79.3737 175.307 80.9132 175.565 82.8618Z" fill="#1A2742"/>
<path d="M87.7135 4.788C82.5481 9.952 82.2081 17.7747 82.8708 23.5573C87.2481 24.0587 90.4575 25.1346 90.4575 25.1346C89.6601 21.7293 88.5868 14.3213 92.9175 9.99198C96.4321 6.47598 102.153 6.47732 105.668 9.99198C109.183 13.5067 109.183 19.2253 105.668 22.7413C101.856 26.5533 94.5588 25.9946 90.4575 25.1346C90.4575 25.1346 91.4321 28.372 91.8895 32.7493C93.3815 32.9653 94.9335 33.1173 96.3895 33.1173C101.2 33.1173 106.791 32.0253 110.872 27.9453C117.256 21.5613 117.256 11.172 110.872 4.788C107.68 1.596 103.485 0 99.2921 0C95.0988 0 90.9055 1.596 87.7135 4.788Z" fill="url(#paint0_linear_5_55)"/>
<path d="M64.1015 28.3986C61.0081 31.492 59.3055 35.6053 59.3055 39.9773C59.3055 44.3533 61.0081 48.464 64.1015 51.5573C67.1948 54.6493 71.3068 56.3533 75.6801 56.3533C80.0548 56.3533 84.1668 54.6493 87.2601 51.5573C92.1868 46.6307 92.5068 38.6533 91.8895 32.7493C87.9455 32.1773 84.4468 31.1373 84.4468 31.1373C84.4468 31.1373 83.3722 27.9293 82.8708 23.5573C81.5442 23.404 80.1068 23.3053 78.6215 23.3053C73.6348 23.3053 68.0788 24.4213 64.1015 28.3986ZM69.3055 46.3533C67.6028 44.6506 66.6655 42.3867 66.6655 39.9773C66.6655 37.5707 67.6028 35.3053 69.3055 33.6027C71.8028 31.1067 75.2895 30.396 78.4535 30.396C80.8148 30.396 82.9948 30.792 84.4468 31.1373C85.3095 35.2427 85.8682 42.54 82.0548 46.3533C80.3522 48.056 78.0881 48.9947 75.6801 48.9947C73.2721 48.9947 71.0081 48.056 69.3055 46.3533Z" fill="url(#paint1_linear_5_55)"/>
<path d="M99.1268 39.8133C96.4948 42.4453 96.4948 46.728 99.1268 49.3586C100.443 50.676 102.171 51.3333 103.9 51.3333C105.63 51.3333 107.357 50.676 108.673 49.3586C111.305 46.7266 111.305 42.4453 108.673 39.8133C107.357 38.4973 105.628 37.8386 103.9 37.8386C102.172 37.8386 100.443 38.4973 99.1268 39.8133Z" fill="url(#paint2_linear_5_55)"/>
<path d="M82.8711 23.5567C83.3711 27.93 84.4471 31.1367 84.4471 31.1367C84.4471 31.1367 87.9444 32.1767 91.8898 32.7487C91.4311 28.3727 90.4578 25.134 90.4578 25.134C90.4578 25.134 87.2471 24.058 82.8711 23.5567Z" fill="#0BEFFF"/>
<path d="M100 45L103 47L107 41" stroke="url(#paint3_linear_5_55)" stroke-width="2"/>
<defs>
<linearGradient id="paint0_linear_5_55" x1="78.9845" y1="-6.01577" x2="106.691" y2="25.22" gradientUnits="userSpaceOnUse">
<stop stop-color="#33CCFF"/>
<stop offset="0.995613" stop-color="#08D1C0"/>
<stop offset="1" stop-color="#08D1C0"/>
</linearGradient>
<linearGradient id="paint1_linear_5_55" x1="82.8413" y1="16.2312" x2="72.412" y2="50.2832" gradientUnits="userSpaceOnUse">
<stop stop-color="#33CCFF"/>
<stop offset="0.00388622" stop-color="#33CCFF"/>
<stop offset="1" stop-color="#1E293B"/>
</linearGradient>
<linearGradient id="paint2_linear_5_55" x1="110.034" y1="24.5595" x2="99.6044" y2="58.6115" gradientUnits="userSpaceOnUse">
<stop stop-color="#33CCFF"/>
<stop offset="0.00388622" stop-color="#33CCFF"/>
<stop offset="1" stop-color="#1A2742"/>
</linearGradient>
<linearGradient id="paint3_linear_5_55" x1="102.988" y1="41.0135" x2="103.074" y2="47.0141" gradientUnits="userSpaceOnUse">
<stop stop-color="#0BEFFF"/>
<stop offset="1" stop-color="#0BEFFF"/>
</linearGradient>
</defs>
</svg>
