<svg width="101" height="150" viewBox="0 0 101 150" fill="none" xmlns="http://www.w3.org/2000/svg">
<path d="M1.54727 70.6861V65.7641H24.7371V70.6861H16.0926V94H10.1918V70.6861H1.54727ZM26.2468 94V72.8231H31.9409V76.518H32.1615C32.5475 75.2036 33.1955 74.211 34.1054 73.54C35.0154 72.8598 36.0632 72.5197 37.2489 72.5197C37.543 72.5197 37.8601 72.5381 38.2002 72.5749C38.5403 72.6117 38.839 72.6622 39.0964 72.7265V77.9381C38.8206 77.8553 38.4392 77.7818 37.952 77.7175C37.4649 77.6531 37.0191 77.621 36.6147 77.621C35.7507 77.621 34.9786 77.8094 34.2985 78.1862C33.6275 78.5539 33.0944 79.0686 32.6992 79.7304C32.3131 80.3922 32.1201 81.155 32.1201 82.019V94H26.2468ZM55.7132 84.9833V72.8231H61.5865V94H55.9476V90.1534H55.727C55.2491 91.3942 54.454 92.3915 53.3419 93.1452C52.2389 93.8989 50.8924 94.2757 49.3023 94.2757C47.8868 94.2757 46.6413 93.954 45.566 93.3106C44.4906 92.6672 43.6495 91.7527 43.0429 90.567C42.4455 89.3813 42.1422 87.9613 42.133 86.3068V72.8231H48.0063V85.259C48.0155 86.509 48.3509 87.4971 49.0127 88.2232C49.6745 88.9493 50.5615 89.3124 51.6736 89.3124C52.3814 89.3124 53.0431 89.1515 53.659 88.8298C54.2748 88.499 54.7711 88.0118 55.148 87.3684C55.534 86.725 55.7224 85.93 55.7132 84.9833ZM83.9044 78.8618L78.5274 79.1927C78.4355 78.7331 78.2379 78.3195 77.9346 77.9518C77.6312 77.575 77.2314 77.2763 76.7351 77.0557C76.2479 76.8259 75.6643 76.711 74.9841 76.711C74.0742 76.711 73.3067 76.904 72.6817 77.2901C72.0567 77.6669 71.7442 78.1724 71.7442 78.8066C71.7442 79.3122 71.9464 79.7396 72.3508 80.0888C72.7552 80.4381 73.4492 80.7185 74.4326 80.9299L78.2654 81.7019C80.3243 82.1247 81.8593 82.8049 82.8703 83.7424C83.8814 84.6799 84.3869 85.9116 84.3869 87.4374C84.3869 88.8253 83.9779 90.0431 83.1599 91.0909C82.351 92.1387 81.2389 92.9568 79.8234 93.545C78.4171 94.1241 76.7948 94.4136 74.9565 94.4136C72.1532 94.4136 69.9197 93.83 68.256 92.6627C66.6016 91.4862 65.6319 89.8869 65.347 87.8648L71.1237 87.5614C71.2984 88.4162 71.7212 89.0688 72.3922 89.5192C73.0631 89.9604 73.9225 90.181 74.9703 90.181C75.9998 90.181 76.827 89.9834 77.452 89.5881C78.0862 89.1837 78.4079 88.6644 78.4171 88.0302C78.4079 87.4971 78.1827 87.0605 77.7415 86.7204C77.3003 86.3712 76.6202 86.1046 75.701 85.9208L72.0337 85.1901C69.9656 84.7764 68.4261 84.0595 67.415 83.0393C66.4132 82.019 65.9122 80.7185 65.9122 79.1375C65.9122 77.7772 66.2799 76.6053 67.0152 75.6218C67.7597 74.6384 68.8029 73.8801 70.1449 73.347C71.496 72.8139 73.0769 72.5473 74.8876 72.5473C77.5623 72.5473 79.6671 73.1126 81.2021 74.2431C82.7462 75.3737 83.647 76.9132 83.9044 78.8618ZM99.3493 72.8231V77.2349H86.5963V72.8231H99.3493ZM89.4916 67.7494H95.3649V87.4925C95.3649 88.0348 95.4476 88.4576 95.613 88.7609C95.7785 89.055 96.0083 89.2618 96.3024 89.3813C96.6057 89.5008 96.955 89.5606 97.3502 89.5606C97.6259 89.5606 97.9017 89.5376 98.1774 89.4916C98.4532 89.4365 98.6646 89.3951 98.8116 89.3675L99.7354 93.738C99.4412 93.83 99.0276 93.9357 98.4945 94.0551C97.9614 94.1838 97.3134 94.262 96.5506 94.2895C95.1351 94.3447 93.8942 94.1563 92.828 93.7243C91.771 93.2923 90.9484 92.6213 90.3602 91.7113C89.7719 90.8014 89.4824 89.6525 89.4916 88.2646V67.7494Z" fill="#08D1C0"/>
<path d="M40.5319 126.882C40.5319 129.961 39.9483 132.581 38.781 134.741C37.6229 136.901 36.042 138.55 34.0382 139.69C32.0437 140.821 29.801 141.386 27.3101 141.386C24.8009 141.386 22.549 140.816 20.5545 139.676C18.5599 138.537 16.9836 136.887 15.8255 134.727C14.6674 132.567 14.0883 129.952 14.0883 126.882C14.0883 123.803 14.6674 121.183 15.8255 119.023C16.9836 116.863 18.5599 115.218 20.5545 114.088C22.549 112.948 24.8009 112.378 27.3101 112.378C29.801 112.378 32.0437 112.948 34.0382 114.088C36.042 115.218 37.6229 116.863 38.781 119.023C39.9483 121.183 40.5319 123.803 40.5319 126.882ZM34.4794 126.882C34.4794 124.888 34.1807 123.205 33.5833 121.836C32.995 120.466 32.1632 119.428 31.0878 118.72C30.0124 118.012 28.7532 117.658 27.3101 117.658C25.8671 117.658 24.6079 118.012 23.5325 118.72C22.4571 119.428 21.6207 120.466 21.0232 121.836C20.435 123.205 20.1409 124.888 20.1409 126.882C20.1409 128.877 20.435 130.559 21.0232 131.928C21.6207 133.298 22.4571 134.336 23.5325 135.044C24.6079 135.752 25.8671 136.106 27.3101 136.106C28.7532 136.106 30.0124 135.752 31.0878 135.044C32.1632 134.336 32.995 133.298 33.5833 131.928C34.1807 130.559 34.4794 128.877 34.4794 126.882ZM44.8439 148.941V119.823H50.6344V123.38H50.8964C51.1537 122.81 51.526 122.231 52.0131 121.643C52.5095 121.046 53.1529 120.549 53.9433 120.154C54.743 119.75 55.7356 119.547 56.9213 119.547C58.4655 119.547 59.8901 119.952 61.1953 120.761C62.5005 121.56 63.5437 122.769 64.325 124.387C65.1063 125.995 65.4969 128.013 65.4969 130.439C65.4969 132.801 65.1154 134.796 64.3526 136.423C63.5989 138.04 62.5694 139.267 61.2643 140.104C59.9683 140.931 58.516 141.345 56.9075 141.345C55.7678 141.345 54.7981 141.156 53.9985 140.779C53.208 140.403 52.56 139.929 52.0545 139.359C51.549 138.78 51.1629 138.197 50.8964 137.608H50.7171V148.941H44.8439ZM50.5931 130.412C50.5931 131.671 50.7677 132.769 51.117 133.707C51.4662 134.644 51.9718 135.375 52.6336 135.899C53.2953 136.414 54.0996 136.671 55.0463 136.671C56.0022 136.671 56.811 136.409 57.4728 135.885C58.1346 135.352 58.6355 134.617 58.9756 133.679C59.3249 132.732 59.4995 131.643 59.4995 130.412C59.4995 129.189 59.3295 128.114 58.9894 127.185C58.6493 126.257 58.1484 125.531 57.4866 125.007C56.8248 124.483 56.0114 124.221 55.0463 124.221C54.0904 124.221 53.2815 124.474 52.6198 124.979C51.9672 125.485 51.4662 126.202 51.117 127.13C50.7677 128.059 50.5931 129.152 50.5931 130.412ZM87.0323 125.862L81.6553 126.193C81.5634 125.733 81.3658 125.32 81.0625 124.952C80.7592 124.575 80.3594 124.276 79.863 124.056C79.3759 123.826 78.7922 123.711 78.1121 123.711C77.2021 123.711 76.4346 123.904 75.8096 124.29C75.1846 124.667 74.8721 125.172 74.8721 125.807C74.8721 126.312 75.0743 126.74 75.4787 127.089C75.8832 127.438 76.5771 127.718 77.5606 127.93L81.3934 128.702C83.4523 129.125 84.9872 129.805 85.9983 130.742C87.0093 131.68 87.5148 132.912 87.5148 134.437C87.5148 135.825 87.1058 137.043 86.2878 138.091C85.479 139.139 84.3668 139.957 82.9513 140.545C81.545 141.124 79.9228 141.414 78.0845 141.414C75.2811 141.414 73.0476 140.83 71.384 139.663C69.7295 138.486 68.7598 136.887 68.4749 134.865L74.2517 134.561C74.4263 135.416 74.8491 136.069 75.5201 136.519C76.1911 136.96 77.0505 137.181 78.0983 137.181C79.1277 137.181 79.9549 136.983 80.58 136.588C81.2142 136.184 81.5359 135.664 81.545 135.03C81.5359 134.497 81.3107 134.061 80.8695 133.72C80.4283 133.371 79.7481 133.105 78.829 132.921L75.1616 132.19C73.0936 131.776 71.554 131.06 70.543 130.039C69.5411 129.019 69.0402 127.718 69.0402 126.138C69.0402 124.777 69.4078 123.605 70.1431 122.622C70.8876 121.638 71.9309 120.88 73.2728 120.347C74.6239 119.814 76.2049 119.547 78.0156 119.547C80.6902 119.547 82.7951 120.113 84.33 121.243C85.8742 122.374 86.7749 123.913 87.0323 125.862Z" fill="#1A2742"/>
<path d="M51.7135 4.788C46.5481 9.952 46.2081 17.7747 46.8708 23.5573C51.2481 24.0587 54.4575 25.1346 54.4575 25.1346C53.6601 21.7293 52.5868 14.3213 56.9175 9.99198C60.4321 6.47598 66.1535 6.47732 69.6681 9.99198C73.1828 13.5067 73.1828 19.2253 69.6681 22.7413C65.8561 26.5533 58.5588 25.9946 54.4575 25.1346C54.4575 25.1346 55.4321 28.372 55.8895 32.7493C57.3815 32.9653 58.9335 33.1173 60.3895 33.1173C65.2001 33.1173 70.7908 32.0253 74.8721 27.9453C81.2561 21.5613 81.2561 11.172 74.8721 4.788C71.6801 1.596 67.4855 -9.86973e-07 63.2921 -9.86973e-07C59.0988 -9.86973e-07 54.9055 1.596 51.7135 4.788Z" fill="url(#paint0_linear_25_3)"/>
<path d="M28.1015 28.3986C25.0081 31.492 23.3055 35.6053 23.3055 39.9773C23.3055 44.3533 25.0081 48.464 28.1015 51.5573C31.1948 54.6493 35.3068 56.3533 39.6801 56.3533C44.0548 56.3533 48.1668 54.6493 51.2601 51.5573C56.1868 46.6307 56.5068 38.6533 55.8895 32.7493C51.9455 32.1773 48.4468 31.1373 48.4468 31.1373C48.4468 31.1373 47.3722 27.9293 46.8708 23.5573C45.5442 23.404 44.1068 23.3053 42.6215 23.3053C37.6348 23.3053 32.0788 24.4213 28.1015 28.3986ZM33.3055 46.3533C31.6028 44.6506 30.6655 42.3867 30.6655 39.9773C30.6655 37.5707 31.6028 35.3053 33.3055 33.6027C35.8028 31.1067 39.2895 30.396 42.4535 30.396C44.8148 30.396 46.9948 30.792 48.4468 31.1373C49.3095 35.2427 49.8682 42.54 46.0548 46.3533C44.3522 48.056 42.0881 48.9947 39.6801 48.9947C37.2721 48.9947 35.0081 48.056 33.3055 46.3533Z" fill="url(#paint1_linear_25_3)"/>
<path d="M63.1268 39.8133C60.4948 42.4453 60.4948 46.728 63.1268 49.3586C64.4428 50.676 66.1708 51.3333 67.9002 51.3333C69.6295 51.3333 71.3575 50.676 72.6735 49.3586C75.3055 46.7266 75.3055 42.4453 72.6735 39.8133C71.3575 38.4973 69.6282 37.8386 67.9002 37.8386C66.1722 37.8386 64.4428 38.4973 63.1268 39.8133Z" fill="url(#paint2_linear_25_3)"/>
<path d="M46.8711 23.5567C47.3711 27.93 48.4471 31.1367 48.4471 31.1367C48.4471 31.1367 51.9444 32.1767 55.8898 32.7487C55.4311 28.3727 54.4578 25.134 54.4578 25.134C54.4578 25.134 51.2471 24.058 46.8711 23.5567Z" fill="#0BEFFF"/>
<path d="M64 45L67 47L71 41" stroke="url(#paint3_linear_25_3)" stroke-width="2"/>
<defs>
<linearGradient id="paint0_linear_25_3" x1="42.9845" y1="-6.01577" x2="70.6907" y2="25.22" gradientUnits="userSpaceOnUse">
<stop stop-color="#33CCFF"/>
<stop offset="0.995613" stop-color="#08D1C0"/>
<stop offset="1" stop-color="#08D1C0"/>
</linearGradient>
<linearGradient id="paint1_linear_25_3" x1="46.8413" y1="16.2312" x2="36.412" y2="50.2832" gradientUnits="userSpaceOnUse">
<stop stop-color="#33CCFF"/>
<stop offset="0.00388622" stop-color="#33CCFF"/>
<stop offset="1" stop-color="#1E293B"/>
</linearGradient>
<linearGradient id="paint2_linear_25_3" x1="74.0336" y1="24.5595" x2="63.6044" y2="58.6115" gradientUnits="userSpaceOnUse">
<stop stop-color="#33CCFF"/>
<stop offset="0.00388622" stop-color="#33CCFF"/>
<stop offset="1" stop-color="#1A2742"/>
</linearGradient>
<linearGradient id="paint3_linear_25_3" x1="66.988" y1="41.0135" x2="67.0743" y2="47.0141" gradientUnits="userSpaceOnUse">
<stop stop-color="#0BEFFF"/>
<stop offset="1" stop-color="#0BEFFF"/>
</linearGradient>
</defs>
</svg>
